<?xml version="1.0" encoding="UTF-8" standalone="no"?>
<svg
   xmlns:dc="http://purl.org/dc/elements/1.1/"
   xmlns:cc="http://creativecommons.org/ns#"
   xmlns:rdf="http://www.w3.org/1999/02/22-rdf-syntax-ns#"
   xmlns:svg="http://www.w3.org/2000/svg"
   xmlns="http://www.w3.org/2000/svg"
   xmlns:sodipodi="http://sodipodi.sourceforge.net/DTD/sodipodi-0.dtd"
   xmlns:inkscape="http://www.inkscape.org/namespaces/inkscape"
   width="100.0001mm"
   height="100.00009mm"
   viewBox="0 0 100.0001 100.00009"
   version="1.1"
   id="svg8"
   inkscape:version="1.0.2 (e86c870879, 2021-01-15, custom)"
   sodipodi:docname="defaultpic.svg">
  <defs
     id="defs2" />
  <sodipodi:namedview
     id="base"
     pagecolor="#ffffff"
     bordercolor="#666666"
     borderopacity="1.0"
     inkscape:pageopacity="0.0"
     inkscape:pageshadow="2"
     inkscape:zoom="0.35"
     inkscape:cx="1343.5433"
     inkscape:cy="577.14831"
     inkscape:document-units="mm"
     inkscape:current-layer="layer1"
     inkscape:document-rotation="0"
     showgrid="false"
     inkscape:object-paths="true"
     inkscape:snap-intersection-paths="true"
     inkscape:snap-smooth-nodes="true"
     inkscape:snap-midpoints="true"
     inkscape:snap-nodes="true"
     fit-margin-top="0"
     fit-margin-left="0"
     fit-margin-right="0"
     fit-margin-bottom="0"
     inkscape:window-width="1920"
     inkscape:window-height="1001"
     inkscape:window-x="-9"
     inkscape:window-y="-9"
     inkscape:window-maximized="1" />
  <metadata
     id="metadata5">
    <rdf:RDF>
      <cc:Work
         rdf:about="">
        <dc:format>image/svg+xml</dc:format>
        <dc:type
           rdf:resource="http://purl.org/dc/dcmitype/StillImage" />
        <dc:title></dc:title>
      </cc:Work>
    </rdf:RDF>
  </metadata>
  <g
     inkscape:label="Layer 1"
     inkscape:groupmode="layer"
     id="layer1"
     transform="translate(-30.205381,-37.430206)">
    <path
       id="path858"
       style="opacity:0.998075;fill:#00eaae;fill-rule:evenodd;stroke:#0942fa;stroke-width:0"
       d="m 324.25977,151.91797 a 188.97638,188.97638 0 0 0 -21.1211,2.56641 175.96077,175.96077 0 0 1 21.1211,1.27343 z m -21.1211,10.05664 A 168.47009,168.47009 0 0 0 260.51172,167.45703 188.97638,188.97638 0 0 0 147.48242,340.5 188.97638,188.97638 0 0 0 177.4668,442.64453 168.47009,168.47009 0 0 0 213.02539,472.78906 180.93163,180.93163 0 0 1 155.52734,340.5 a 180.93163,180.93163 0 0 1 151.2793,-178.48438 168.47009,168.47009 0 0 0 -3.66797,-0.041 z M 205.80078,477.0293 a 188.97638,188.97638 0 0 0 2.98242,2.79297 h 1.36133 a 175.96077,175.96077 0 0 1 -4.34375,-2.79297 z"
       transform="scale(0.26458333)" />
    <path
       id="path862"
       style="opacity:0.998075;fill:#00eaae;fill-rule:evenodd;stroke:#0942fa;stroke-width:0"
       d="M 80.205432,37.430207 A 50,50 0 0 0 30.205382,87.430255 50,50 0 0 0 80.205432,137.4303 50,50 0 0 0 130.20548,87.430255 50,50 0 0 0 80.205432,37.430207 Z m 0,3.443717 a 46.598913,46.598913 0 0 1 46.598708,46.598707 46.598913,46.598913 0 0 1 -46.598708,46.599219 46.598913,46.598913 0 0 1 -46.5987,-46.599219 46.598913,46.598913 0 0 1 46.5987,-46.598707 z" />
    <path
       id="path867"
       style="opacity:0.998075;fill:#00eaae;fill-rule:evenodd;stroke:#0942fa;stroke-width:0"
       d="M 80.205432,37.430207 A 50,50 0 0 0 30.205382,87.430255 50,50 0 0 0 80.205432,137.4303 50,50 0 0 0 130.20548,87.430255 50,50 0 0 0 80.205432,37.430207 Z m 0,3.443717 a 46.598913,46.598913 0 0 1 46.598708,46.598707 46.598913,46.598913 0 0 1 -46.598708,46.599219 46.598913,46.598913 0 0 1 -46.5987,-46.599219 46.598913,46.598913 0 0 1 46.5987,-46.598707 z" />
    <path
       id="path880"
       style="opacity:0.998075;fill:#4d4d4d;fill-rule:evenodd;stroke:#0942fa;stroke-width:0"
       d="M 120.19922 144.36523 A 44.610569 44.610569 0 0 0 75.589844 188.97656 L 80.134766 188.97656 A 40.064882 40.064882 0 0 1 120.07227 148.91211 A 40.064882 40.064882 0 0 1 120.19922 148.91211 A 40.064882 40.064882 0 0 1 160.26562 188.97656 L 164.81055 188.97656 A 44.610569 44.610569 0 0 0 120.19922 144.36523 z "
       transform="matrix(0.26458333,0,0,0.26458333,30.205381,37.430206)" />
    <path
       id="path889"
       style="opacity:0.998075;fill:#4d4d4d;fill-rule:evenodd;stroke:#0942fa;stroke-width:0"
       d="M 257.75195 144.36523 A 44.610569 44.610569 0 0 0 213.14258 188.97656 L 217.6875 188.97656 A 40.064882 40.064882 0 0 1 257.625 148.91211 A 40.064882 40.064882 0 0 1 257.75195 148.91211 A 40.064882 40.064882 0 0 1 297.81836 188.97656 L 302.36328 188.97656 A 44.610569 44.610569 0 0 0 257.75195 144.36523 z "
       transform="matrix(0.26458333,0,0,0.26458333,30.205381,37.430206)" />
  </g>
</svg>
